# xmcd
#
# Track frame offsets:
#	150
#	16639
#	31983
#	53905
#	68107
#	83205
#	89270
#	103870
#	122792
#	134247
#	145661
#
# Disc length: 2313 seconds
# Revision: 0
# Processed by: cddbd v1.5.2PL0 Copyright (c) Steve Scherf et al.
# Submitted via: dBpowerAMP V12.0
#
DISCID=9409070b
DTITLE=Katel - Decorum
DYEAR=2010
DGENRE=Chanson
TTITLE0=Decorum
TTITLE1=Vue sur le ring
TTITLE2=Mon viel ami
TTITLE3=Hurlevent
TTITLE4=Quelque chose (qui nous suit)
TTITLE5=Tombee dans l'escalier
TTITLE6=Chez Escher
TTITLE7=Vacante
TTITLE8=Le chant du cygne
TTITLE9=La bouche
TTITLE10=Les parfums d'ete
EXTD=
EXTT0=
EXTT1=
EXTT2=
EXTT3=
EXTT4=
EXTT5=
EXTT6=
EXTT7=
EXTT8=
EXTT9=
EXTT10=
PLAYORDER=
